/vscmnt/brussel_pixiu_data/_data_brussel/112/vsc11236/PredSimResults/SUBJ10opt3D/weighted-LRposFixed/trackIG/worker_05.mot
version=1
nRows=10
nColumns=50
inDegrees=yes
endheader
                time	         pelvis_tilt	         pelvis_list	     pelvis_rotation	           pelvis_tx	           pelvis_ty	           pelvis_tz	       hip_flexion_r	     hip_adduction_r	      hip_rotation_r	        knee_angle_r	       ankle_angle_r	         mtp_angle_r	       hip_flexion_l	     hip_adduction_l	      hip_rotation_l	        knee_angle_l	       ankle_angle_l	         mtp_angle_l	    lumbar_extension	      lumbar_bending	     lumbar_rotation	 ercspn_r/activation	 intobl_r/activation	 extobl_r/activation	    abd_r/activation	    add_r/activation	hamstrings_r/activation	bifemsh_r/activation	glut_max_r/activation	iliopsoas_r/activation	rect_fem_r/activation	  vasti_r/activation	gastroc_r/activation	 soleus_r/activation	tib_ant_r/activation	 ercspn_l/activation	 intobl_l/activation	 extobl_l/activation	    abd_l/activation	    add_l/activation	hamstrings_l/activation	bifemsh_l/activation	glut_max_l/activation	iliopsoas_l/activation	rect_fem_l/activation	  vasti_l/activation	gastroc_l/activation	 soleus_l/activation	tib_ant_l/activation	
          1.20240146	         -5.07417655	         -1.06103377	          6.56672725	          1.29859358	          0.82288959	         -0.01420293	         30.66615834	         -1.50370920	         -5.99957556	         -4.51971096	          3.15409689	          0.25817887	        -13.93581533	         -0.40271028	          0.33865234	         -5.78367550	          9.28123961	         26.38116613	         -6.19139307	         -0.79890529	         -7.00349366	          0.12541945	          0.16125955	          0.00999999	          0.00999999	          0.13996195	          0.14507486	          0.19557046	          0.02873114	          0.12899255	          0.00999999	          0.00999999	          0.01356166	          0.00999999	          0.27992951	          0.04997232	          0.00999999	          0.00999999	          0.07457382	          0.00999999	          0.01244576	          0.27451104	          0.02991962	          0.55820778	          0.00999999	          0.00999999	          0.36181424	          0.28371904	          0.02517008	
          1.21442548	         -5.12269157	         -1.03554339	          6.75278468	          1.31420487	          0.82113562	         -0.01373101	         30.91371663	         -1.37556396	         -5.86529825	         -6.56246506	          2.81129424	          0.25906789	        -14.11023829	         -0.54285064	          0.04166644	         -7.34178447	          8.77617341	         28.07924926	         -5.94537281	         -0.27785057	         -7.40115059	          0.10951063	          0.13433815	          0.00999999	          0.00999999	          0.25531926	          0.12235220	          0.16292104	          0.06817541	          0.10745795	          0.00999999	          0.00999999	          0.01659271	          0.01253911	          0.30197015	          0.10100185	          0.00999999	          0.00999999	          0.06212413	          0.04643601	          0.01695019	          0.22868293	          0.02492470	          0.52765546	          0.00999999	          0.00999999	          0.33334052	          0.27699886	          0.02096808	
          1.22644949	         -5.15801310	         -1.03760749	          6.91335572	          1.33027138	          0.81959781	         -0.01319470	         30.94636573	         -1.26152506	         -5.59476307	         -8.51645121	          2.42572668	          0.24413556	        -14.14675703	         -0.72611382	         -0.27411234	         -9.20558207	          8.12172683	         29.81480339	         -5.65980546	          0.27978362	         -7.77191817	          0.09122843	          0.11191113	          0.00999999	          0.00999999	          0.21269511	          0.10224115	          0.13572227	          0.12026619	          0.08951844	          0.00999999	          0.00999999	          0.01382264	          0.01044578	          0.37345049	          0.11775963	          0.00999999	          0.00999999	          0.05175285	          0.07829886	          0.01412047	          0.19050557	          0.02076366	          0.44479579	          0.00999999	          0.00999999	          0.29609212	          0.26454170	          0.01746757	
          1.23847351	         -5.18230216	         -1.05570446	          7.03881914	          1.34660136	          0.81839012	         -0.01251916	         30.77851517	         -1.13297586	         -5.37308780	        -10.14157277	          1.93700166	          0.23419032	        -13.99771196	         -0.94257924	         -0.61870001	        -11.42140601	          7.27216537	         31.54464563	         -5.35698998	          0.84532811	         -8.10896205	          0.10305674	          0.09322818	          0.00999999	          0.04616091	          0.18975747	          0.08922883	          0.11306418	          0.13890155	          0.07457382	          0.00999999	          0.00999999	          0.01151503	          0.00999999	          0.43311481	          0.13061975	          0.00999999	          0.00999999	          0.04311299	          0.06568443	          0.01687400	          0.15870171	          0.01729728	          0.37053957	          0.00999999	          0.00999999	          0.24666117	          0.24680730	          0.01455145	
          1.25049752	         -5.19707936	         -1.07450267	          7.12929381	          1.36296558	          0.81760670	         -0.01171072	         30.51909172	         -0.99706865	         -5.26458043	        -11.62934486	          1.47942836	          0.22062395	        -13.62282124	         -1.17638378	         -0.99414940	        -14.01867706	          6.20584876	         33.16053094	         -5.06146073	          1.40161215	         -8.40668594	          0.10958845	          0.07766425	          0.00999999	          0.09113839	          0.21959466	          0.07467628	          0.09418873	          0.14762475	          0.06212413	          0.00999999	          0.00999999	          0.00999999	          0.00999999	          0.46036929	          0.16058782	          0.00999999	          0.00999999	          0.03591552	          0.06784019	          0.01976668	          0.13220733	          0.01440959	          0.30868002	          0.00999999	          0.00999999	          0.20548244	          0.22470601	          0.01212217	
          1.26252153	         -5.20302224	         -1.09368981	          7.18661616	          1.37918466	          0.81732378	         -0.01079282	         30.24008174	         -0.85889579	         -5.24729231	        -13.10630412	          1.18962396	          0.20718859	        -12.99490632	         -1.42787442	         -1.40361246	        -17.00950486	          4.93876033	         34.46726349	         -4.78723442	          1.94864767	         -8.66168055	          0.10648925	          0.06469863	          0.00999999	          0.12443730	          0.23732325	          0.06833294	          0.07846444	          0.14352651	          0.05175285	          0.00999999	          0.05128354	          0.00999999	          0.00999999	          0.47561509	          0.18578690	          0.00999999	          0.00999999	          0.02991962	          0.13585600	          0.03056464	          0.11013604	          0.01200399	          0.25714758	          0.00999999	          0.00999999	          0.17117827	          0.19139771	          0.01009844	
          1.27454555	         -5.20265072	         -1.11074185	          7.21058546	          1.39511142	          0.81763884	         -0.00979597	         29.93265344	         -0.71815234	         -5.28878770	        -14.53416837	          1.12288298	          0.19220048	        -12.08999898	         -1.69491224	         -1.86108244	        -20.39866695	          3.51561302	         35.17601006	         -4.54462905	          2.48398630	         -8.87172539	          0.10066359	          0.05389755	          0.00999999	          0.14645030	          0.25115902	          0.06723816	          0.06536523	          0.12153035	          0.04311299	          0.00999999	          0.09755599	          0.00999999	          0.00999999	          0.46492556	          0.19737731	          0.00999999	          0.00999999	          0.02492470	          0.20137232	          0.04263381	          0.09174943	          0.00999999	          0.21421820	          0.00999999	          0.00999999	          0.14260099	          0.15944491	          0.00999999	
          1.28656956	         -5.19860343	         -1.11955319	          7.20138625	          1.41066509	          0.81859233	         -0.00875291	         29.55026357	         -0.57185558	         -5.34276888	        -15.82988248	          1.36286992	          0.18788029	        -10.90098455	         -1.97667715	         -2.37206897	        -24.17183836	          1.97499107	         35.03835024	         -4.33866669	          3.00220428	         -9.03550590	          0.09376817	          0.04489965	          0.00999999	          0.16008606	          0.25100873	          0.06828854	          0.05445286	          0.10124152	          0.03591552	          0.00999999	          0.14325000	          0.00999999	          0.00999999	          0.41290923	          0.20481210	          0.00999999	          0.00999999	          0.02076366	          0.26483932	          0.04704384	          0.07643237	          0.00999999	          0.17845565	          0.00999999	          0.00999999	          0.11879454	          0.13282646	          0.00999999	
          1.29859358	         -5.19347088	         -1.10979139	          7.15726278	          1.42580913	          0.82018618	         -0.00769936	         29.02946736	         -0.42065606	         -5.37133779	        -16.87482845	          1.92436377	          0.23134040	         -9.45066841	         -2.26624964	         -2.91941181	        -28.22357020	          0.18021068	         34.11640106	         -4.17125105	          3.49416882	         -9.15076030	          0.07934692	          0.03740390	          0.00999999	          0.16133165	          0.23153057	          0.06992750	          0.04536226	          0.08433981	          0.02991962	          0.00999999	          0.17922642	          0.00999999	          0.00999999	          0.34552883	          0.20635648	          0.00999999	          0.00999999	          0.01729728	          0.32245695	          0.05938649	          0.06367240	          0.00999999	          0.14866345	          0.00999999	          0.00999999	          0.09896244	          0.11065181	          0.00999999	
          1.31061759	         -5.18963664	         -1.06683939	          7.07443960	          1.44051137	          0.82238260	         -0.00666274	         28.32463738	         -0.27325665	         -5.35302827	        -17.55665358	          2.64348088	          0.34182968	         -7.78076638	         -2.54689918	         -3.47059960	        -32.40453865	         -1.98556380	         32.50276405	         -4.04730046	          3.94555155	         -9.21538300	          0.06610039	          0.03115952	          0.00999999	          0.15394403	          0.19287781	          0.07359327	          0.03778928	          0.07025974	          0.02492470	          0.00999999	          0.18780253	          0.00999999	          0.00999999	          0.28868451	          0.19906959	          0.00999999	          0.00999999	          0.01440959	          0.33924976	          0.05835796	          0.05454895	          0.00999999	          0.12384491	          0.00999999	          0.00999999	          0.08244120	          0.09217910	          0.00999999	
